# xmcd CD database file
#
# Track frame offsets:
#	150
#	12638
#	24018
#	35461
#	45907
#	58103
#	73810
#	85752
#	100001
#	110684
#	125991
#	137879
#	148742
#	166006
#	176625
#	189509
#	202097
#	217992
#	228897
#	239599
#	251882
#	263989
#	277109
#	290510
#	299987
#
# Disc length: 4158 seconds
#
# Revision: 0
# Processed by: cddbd v1.5.1PL2 Copyright (c) Steve Scherf et al.
# Submitted via: CDex 1.51
#
DISCID=8c103c19
DTITLE=Jimmy Reed - Essential Boss Man [CD3]
DYEAR=1900
DGENRE=Blues
TTITLE0=Big Boss Man
TTITLE1=Hold Me Close
TTITLE2=Close Together
TTITLE3=You Know You're Looking Good
TTITLE4=Kind Of Lonesome
TTITLE5=Found Joy
TTITLE6=Bright Lights, Big City
TTITLE7=Baby, What's Wrong
TTITLE8=Aw Shucks, Hush Your Mouth
TTITLE9=I'm Mr Luck
TTITLE10=Blue Carnegie (Instrumental)
TTITLE11=Good Lover
TTITLE12=Down In Mississippi
TTITLE13=Too Much
TTITLE14=Let's Get Together
TTITLE15=Shame, Shame, Shame
TTITLE16=Cold And Lonesome
TTITLE17=Up Tight
TTITLE18=Mixed Up
TTITLE19=Wear Something Green
TTITLE20=When You're Doing All Right
TTITLE21=I'm Going Upside Your Head
TTITLE22=I'm The Man Down There
TTITLE23=When Girls Do It
TTITLE24=Knockin' At Your Door
EXTD=
EXTT0=
EXTT1=
EXTT2=
EXTT3=
EXTT4=
EXTT5=
EXTT6=
EXTT7=
EXTT8=
EXTT9=
EXTT10=
EXTT11=
EXTT12=
EXTT13=
EXTT14=
EXTT15=
EXTT16=
EXTT17=
EXTT18=
EXTT19=
EXTT20=
EXTT21=
EXTT22=
EXTT23=
EXTT24=
PLAYORDER=
